<svg width="347" height="30" viewBox="0 0 347 30" fill="none" xmlns="http://www.w3.org/2000/svg">
<path d="M12.5039 29.4102C10.1862 29.4102 8.12891 29.1888 6.33203 28.7461C4.53516 28.3034 2.74479 27.4701 0.960938 26.2461V18.8633H6.25391L6.83984 22.6523C7.25651 23.1211 7.99219 23.5182 9.04688 23.8438C10.1016 24.1562 11.2539 24.3125 12.5039 24.3125C13.3633 24.3125 14.0924 24.2018 14.6914 23.9805C15.8763 23.5508 16.4688 22.737 16.4688 21.5391C16.4688 20.9792 16.332 20.4779 16.0586 20.0352C15.5117 19.2018 14.1901 18.375 12.0938 17.5547C9.69792 16.7865 7.69922 15.9922 6.09766 15.1719C4.53516 14.3646 3.36979 13.4076 2.60156 12.3008C1.84635 11.194 1.46875 9.82031 1.46875 8.17969C1.46875 6.60417 1.91797 5.22396 2.81641 4.03906C3.71484 2.86719 4.95182 1.94271 6.52734 1.26562C8.10286 0.588542 9.90625 0.230469 11.9375 0.191406C14.2552 0.139323 16.306 0.373698 18.0898 0.894531C19.8737 1.40234 21.4492 2.17708 22.8164 3.21875V10.0742H17.7383L16.9375 6.26562C16.4948 6.04427 15.8633 5.84245 15.043 5.66016C14.2227 5.47786 13.3503 5.38672 12.4258 5.38672C11.6055 5.38672 10.9023 5.49089 10.3164 5.69922C9.69141 5.90755 9.19661 6.22005 8.83203 6.63672C8.48047 7.05339 8.30469 7.57422 8.30469 8.19922C8.30469 8.69401 8.45443 9.14323 8.75391 9.54688C9.07943 9.98958 9.67839 10.4258 10.5508 10.8555C11.4232 11.2852 12.4062 11.7083 13.5 12.125C16.7292 13.0755 19.1771 14.2669 20.8438 15.6992C22.5234 17.1185 23.3633 19.0521 23.3633 21.5C23.3633 23.1927 22.9076 24.6185 21.9961 25.7773C21.0846 26.9622 19.8151 27.8672 18.1875 28.4922C16.5599 29.1042 14.6654 29.4102 12.5039 29.4102ZM42.6602 23.707L42.8164 20.6406H47.9336V29H24.9062V24.9961L27.8555 24.3711V5.21094L24.9062 4.58594V0.5625H47.6211V8.76562H42.4453L42.2891 5.83594H34.7109V11.6758H43.793V16.9297H34.7109V23.707H42.6602ZM63.8125 29H50.4922V24.9961L53.4805 24.2734V5.32812L50.4922 4.58594V0.5625H63.8125C66.3906 0.5625 68.6628 1.15495 70.6289 2.33984C72.6081 3.52474 74.1576 5.17188 75.2773 7.28125C76.3971 9.39062 76.957 11.819 76.957 14.5664V15.0156C76.957 17.763 76.3971 20.1849 75.2773 22.2812C74.1576 24.3906 72.6081 26.0378 70.6289 27.2227C68.6497 28.4076 66.3776 29 63.8125 29ZM63.4609 5.77734H60.3359V23.8047H63.4609C64.8932 23.8047 66.1042 23.4401 67.0938 22.7109C68.0703 21.9818 68.806 20.9596 69.3008 19.6445C69.8086 18.3164 70.0625 16.7734 70.0625 15.0156V14.5469C70.0625 12.8021 69.8151 11.2656 69.3203 9.9375C68.8125 8.6224 68.0703 7.60026 67.0938 6.87109C66.1172 6.14193 64.9062 5.77734 63.4609 5.77734ZM88.9883 5.21094V24.3711L91.9375 24.9961V29H79.2031V24.9961L82.1523 24.3711V5.21094L79.2031 4.58594V0.5625H91.9375V4.58594L88.9883 5.21094ZM114.125 17.0664L117.094 24.332L119.789 25.0156V29H111.508L107.973 18.7461L103.305 18.6875V24.3711L106.254 24.9961V29H93.5V24.9961L96.4492 24.3711V5.21094L93.5 4.58594V0.542969H107.484C109.75 0.542969 111.703 0.901042 113.344 1.61719C114.997 2.33333 116.273 3.35547 117.172 4.68359C118.07 5.9987 118.52 7.5612 118.52 9.37109C118.52 11.0378 118.07 12.5872 117.172 14.0195C116.781 14.6185 116.332 15.1784 115.824 15.6992C115.316 16.2201 114.75 16.6758 114.125 17.0664ZM103.305 5.79688V13.4336H107.562C108.891 13.4336 109.913 13.1276 110.629 12.5156C111.345 11.8906 111.703 10.9922 111.703 9.82031C111.703 8.60938 111.339 7.63932 110.609 6.91016C109.88 6.16797 108.839 5.79688 107.484 5.79688H103.305ZM130.551 21.5586L129.73 24.6445L131.586 24.9961V29H120.941V24.9961L122.934 24.7031L131.41 0.5625H138.832L147.328 24.7031L149.32 24.9961V29H138.695V24.9961L140.551 24.6445L139.691 21.5586H130.551ZM135.453 8.14062L135.141 7.14453H135.023L134.691 8.23828L131.996 16.7539H138.227L135.453 8.14062ZM181.996 23.707L182.152 20.6406H187.27V29H164.242V24.9961L167.191 24.3711V5.21094L164.242 4.58594V0.5625H186.957V8.76562H181.781L181.625 5.83594H174.047V11.6758H183.129V16.9297H174.047V23.707H181.996ZM203.52 18.7852L198.969 24.7617L201.215 24.9961V29H189.203V24.9961L191.723 24.4883L199.281 15.1328L192.055 5.11328L189.867 4.58594V0.5625H202.152V4.58594L199.418 4.83984L203.441 10.4844L207.621 4.83984L205.023 4.58594V0.5625H217.016V4.58594L214.555 5.11328L207.543 14.3125L215.473 24.4688L218.285 24.9961V29H205.629V24.9961L207.895 24.7617L203.52 18.7852ZM229.047 24.3711L231.996 24.9961V29H219.242V24.9961L222.191 24.3711V5.21094L219.242 4.58594V0.5625H233.07C235.362 0.5625 237.328 0.959635 238.969 1.75391C240.635 2.54818 241.918 3.65495 242.816 5.07422C243.728 6.48047 244.184 8.12109 244.184 9.99609C244.184 11.8711 243.734 13.5117 242.836 14.918C241.924 16.3242 240.635 17.418 238.969 18.1992C237.302 18.9805 235.336 19.3711 233.07 19.3711H229.047V24.3711ZM233.07 5.79688H229.047V14.1172H233.07C234.464 14.1172 235.518 13.7396 236.234 12.9844C236.964 12.2161 237.328 11.2331 237.328 10.0352C237.328 8.79818 236.964 7.78255 236.234 6.98828C235.518 6.19401 234.464 5.79688 233.07 5.79688ZM266.078 17.0664L269.047 24.332L271.742 25.0156V29H263.461L259.926 18.7461L255.258 18.6875V24.3711L258.207 24.9961V29H245.453V24.9961L248.402 24.3711V5.21094L245.453 4.58594V0.542969H259.438C261.703 0.542969 263.656 0.901042 265.297 1.61719C266.951 2.33333 268.227 3.35547 269.125 4.68359C270.023 5.9987 270.473 7.5612 270.473 9.37109C270.473 11.0378 270.023 12.5872 269.125 14.0195C268.734 14.6185 268.285 15.1784 267.777 15.6992C267.27 16.2201 266.703 16.6758 266.078 17.0664ZM255.258 5.79688V13.4336H259.516C260.844 13.4336 261.866 13.1276 262.582 12.5156C263.298 11.8906 263.656 10.9922 263.656 9.82031C263.656 8.60938 263.292 7.63932 262.562 6.91016C261.833 6.16797 260.792 5.79688 259.438 5.79688H255.258ZM290.98 23.707L291.137 20.6406H296.254V29H273.227V24.9961L276.176 24.3711V5.21094L273.227 4.58594V0.5625H295.941V8.76562H290.766L290.609 5.83594H283.031V11.6758H292.113V16.9297H283.031V23.707H290.98ZM311.254 29.4102C308.936 29.4102 306.879 29.1888 305.082 28.7461C303.285 28.3034 301.495 27.4701 299.711 26.2461V18.8633H305.004L305.59 22.6523C306.007 23.1211 306.742 23.5182 307.797 23.8438C308.852 24.1562 310.004 24.3125 311.254 24.3125C312.113 24.3125 312.842 24.2018 313.441 23.9805C314.626 23.5508 315.219 22.737 315.219 21.5391C315.219 20.9792 315.082 20.4779 314.809 20.0352C314.262 19.2018 312.94 18.375 310.844 17.5547C308.448 16.7865 306.449 15.9922 304.848 15.1719C303.285 14.3646 302.12 13.4076 301.352 12.3008C300.596 11.194 300.219 9.82031 300.219 8.17969C300.219 6.60417 300.668 5.22396 301.566 4.03906C302.465 2.86719 303.702 1.94271 305.277 1.26562C306.853 0.588542 308.656 0.230469 310.688 0.191406C313.005 0.139323 315.056 0.373698 316.84 0.894531C318.624 1.40234 320.199 2.17708 321.566 3.21875V10.0742H316.488L315.688 6.26562C315.245 6.04427 314.613 5.84245 313.793 5.66016C312.973 5.47786 312.1 5.38672 311.176 5.38672C310.355 5.38672 309.652 5.49089 309.066 5.69922C308.441 5.90755 307.947 6.22005 307.582 6.63672C307.23 7.05339 307.055 7.57422 307.055 8.19922C307.055 8.69401 307.204 9.14323 307.504 9.54688C307.829 9.98958 308.428 10.4258 309.301 10.8555C310.173 11.2852 311.156 11.7083 312.25 12.125C315.479 13.0755 317.927 14.2669 319.594 15.6992C321.273 17.1185 322.113 19.0521 322.113 21.5C322.113 23.1927 321.658 24.6185 320.746 25.7773C319.835 26.9622 318.565 27.8672 316.938 28.4922C315.31 29.1042 313.415 29.4102 311.254 29.4102ZM336.098 29.4102C333.78 29.4102 331.723 29.1888 329.926 28.7461C328.129 28.3034 326.339 27.4701 324.555 26.2461V18.8633H329.848L330.434 22.6523C330.85 23.1211 331.586 23.5182 332.641 23.8438C333.695 24.1562 334.848 24.3125 336.098 24.3125C336.957 24.3125 337.686 24.2018 338.285 23.9805C339.47 23.5508 340.062 22.737 340.062 21.5391C340.062 20.9792 339.926 20.4779 339.652 20.0352C339.105 19.2018 337.784 18.375 335.688 17.5547C333.292 16.7865 331.293 15.9922 329.691 15.1719C328.129 14.3646 326.964 13.4076 326.195 12.3008C325.44 11.194 325.062 9.82031 325.062 8.17969C325.062 6.60417 325.512 5.22396 326.41 4.03906C327.309 2.86719 328.546 1.94271 330.121 1.26562C331.697 0.588542 333.5 0.230469 335.531 0.191406C337.849 0.139323 339.9 0.373698 341.684 0.894531C343.467 1.40234 345.043 2.17708 346.41 3.21875V10.0742H341.332L340.531 6.26562C340.089 6.04427 339.457 5.84245 338.637 5.66016C337.816 5.47786 336.944 5.38672 336.02 5.38672C335.199 5.38672 334.496 5.49089 333.91 5.69922C333.285 5.90755 332.79 6.22005 332.426 6.63672C332.074 7.05339 331.898 7.57422 331.898 8.19922C331.898 8.69401 332.048 9.14323 332.348 9.54688C332.673 9.98958 333.272 10.4258 334.145 10.8555C335.017 11.2852 336 11.7083 337.094 12.125C340.323 13.0755 342.771 14.2669 344.438 15.6992C346.117 17.1185 346.957 19.0521 346.957 21.5C346.957 23.1927 346.501 24.6185 345.59 25.7773C344.678 26.9622 343.409 27.8672 341.781 28.4922C340.154 29.1042 338.259 29.4102 336.098 29.4102Z" fill="black"/>
</svg>
